<?xml version="1.0" encoding="UTF-8"?>
<svg version="1.1" xmlns="http://www.w3.org/2000/svg" width="600" height="600">
<path d="M0 0 C198 0 396 0 600 0 C600 198 600 396 600 600 C402 600 204 600 0 600 C0 402 0 204 0 0 Z " fill="#FEFEFE" transform="translate(0,0)"/>
<path d="M0 0 C3.41411695 0.00008078 6.82809833 -0.00679958 10.2421875 -0.02050781 C28.07043755 -0.09096029 45.83822874 0.03463155 63.63769531 1.13452148 C64.3429258 1.17773844 65.04815628 1.22095539 65.77475739 1.26548195 C77.91211826 2.02895445 77.91211826 2.02895445 81.90332031 3.18530273 C81.90332031 3.84530273 81.90332031 4.50530273 81.90332031 5.18530273 C78.25737823 5.04211698 74.61159365 4.89521783 70.96582031 4.74780273 C69.46245117 4.68882813 69.46245117 4.68882813 67.92871094 4.62866211 C62.6720849 4.41444224 57.42385581 4.15927093 52.17436981 3.80852318 C42.36887962 3.17051674 32.60175445 3.03824609 22.77832031 3.05249023 C21.09456366 3.05181349 19.41080711 3.05084042 17.72705078 3.04959106 C14.22785496 3.04813147 10.72868496 3.05021187 7.22949219 3.05493164 C2.79582664 3.06062782 -1.63777831 3.05733938 -6.07144165 3.05135918 C-9.53947385 3.0477061 -13.00749223 3.04891368 -16.4755249 3.05148697 C-18.10821541 3.05214319 -19.74090727 3.05137484 -21.37359619 3.04900742 C-58.41012997 3.00705872 -95.42044387 7.99431278 -131.15917969 17.81030273 C-132.22048096 18.10118774 -132.22048096 18.10118774 -133.30322266 18.39794922 C-137.73888098 19.66612424 -141.88033306 21.32486407 -146.09667969 23.18530273 C-148.15586621 23.96494442 -150.21836856 24.7358876 -152.28417969 25.49780273 C-166.96584054 31.16264448 -185.38610516 39.43778361 -192.64306641 54.36645508 C-194.18654332 58.02710387 -194.46533819 61.15391103 -194.46777344 65.15014648 C-194.48232326 66.57112985 -194.49723733 67.99210952 -194.51245117 69.41308594 C-194.51542206 70.17400543 -194.51839294 70.93492493 -194.52145386 71.71890259 C-194.61902839 90.15066219 -195.69402295 108.51573515 -196.89746475 126.90112305 C-197.12675324 130.41752383 -197.35122092 133.9342317 -197.57592773 137.45092773 C-197.66517325 138.84588708 -197.75443201 140.24084558 -197.84370422 141.63580322 C-197.88749018 142.32012672 -197.93127613 143.00445023 -197.97638893 143.7095108 C-198.10766483 145.75978266 -198.23917261 147.8100395 -198.37077332 149.86029053 C-198.53720968 152.45343952 -198.70348163 155.04659907 -198.86956787 157.63977051 C-199.01146908 159.85504631 -199.15370607 162.07030066 -199.29644775 164.28552246 C-200.80277724 187.79843972 -201.29462669 211.27087387 -201.34165955 234.82716751 C-201.34659503 236.96119714 -201.35450151 239.0951991 -201.36291504 241.22921753 C-201.41755536 257.32030965 -201.08427212 273.20348965 -199.09667969 289.18530273 C-199.0120195 289.88653259 -198.92735931 290.58776245 -198.84013367 291.3102417 C-198.31873118 295.61178798 -197.72609396 299.89824326 -197.09667969 304.18530273 C-196.99242676 304.92490234 -196.88817383 305.66450195 -196.78076172 306.42651367 C-193.85643959 327.07927344 -189.592204 349.50104323 -176.42089844 366.32592773 C-175.09667969 368.18530273 -175.09667969 368.18530273 -175.09667969 370.18530273 C-174.26136719 370.55655273 -174.26136719 370.55655273 -173.40917969 370.93530273 C-171.09667969 372.18530273 -171.09667969 372.18530273 -168.84667969 374.06030273 C-160.62901007 380.41032016 -152.39137393 381.2252386 -142.27636719 381.68530273 C-140.59016897 381.76862995 -138.90397106 381.85196348 -137.21777344 381.93530273 C-134.58679824 382.06131389 -131.95576603 382.18605424 -129.32470703 382.31030273 C-126.76676691 382.4322228 -124.20907481 382.55861293 -121.65136719 382.68530273 C-120.86792938 382.72075195 -120.08449158 382.75620117 -119.27731323 382.79272461 C-115.4534756 382.98312576 -111.83278127 383.36184858 -108.09667969 384.18530273 C-104.56299948 384.60333514 -101.01702901 384.88357088 -97.47167969 385.18530273 C-96.55644531 385.26780273 -95.64121094 385.35030273 -94.69824219 385.43530273 C-78.0999126 386.87083394 -61.53838613 387.37189547 -44.88183594 387.37060547 C-41.73195942 387.37279559 -38.58243248 387.39105241 -35.43261719 387.40991211 C9.27194336 387.53621528 56.63877081 379.34971835 89.99707031 347.11108398 C104.01806766 333.15100674 113.43450994 316.87752624 119.90332031 298.18530273 C120.28182129 297.12448486 120.28182129 297.12448486 120.66796875 296.04223633 C128.64249599 273.31631229 131.12649122 248.60811776 131.02832031 224.62280273 C131.02421143 223.39118408 131.02010254 222.15956543 131.01586914 220.890625 C130.79710418 184.8884985 125.95057654 148.73898647 117.50878906 113.73413086 C116.74274386 110.50932769 116.01151728 107.27710544 115.27832031 104.04467773 C112.54124285 92.02246939 109.77040203 80.04577572 106.12988281 68.25952148 C105.21983644 65.29931447 104.39760921 62.32606551 103.61425781 59.32983398 C100.33057899 46.78365858 96.4607155 34.52058186 92.24243164 22.26269531 C91.61630981 20.43001099 91.61630981 20.43001099 90.97753906 18.56030273 C90.60201904 17.47491211 90.22649902 16.38952148 89.83959961 15.27124023 C88.92186489 12.24642487 88.34836594 9.31147687 87.90332031 6.18530273 C88.89332031 6.51530273 89.88332031 6.84530273 90.90332031 7.18530273 C92.08251953 9.87475586 92.08251953 9.87475586 93.20800781 13.46655273 C93.41223358 14.10709595 93.61645935 14.74763916 93.82687378 15.40759277 C94.48942295 17.49657728 95.13421577 19.59056482 95.77832031 21.68530273 C96.22963628 23.12436616 96.6817863 24.56316828 97.13476562 26.00170898 C98.40751493 30.05790569 99.65736828 34.12079652 100.90332031 38.18530273 C101.18530273 39.09666992 101.46728516 40.00803711 101.7578125 40.94702148 C104.711403 50.52044451 107.24744486 60.19604091 109.74414062 69.89697266 C111.04858759 74.95864767 112.40566549 79.98904844 113.90332031 84.99780273 C118.91136809 102.41261907 122.38358662 120.1904696 125.65332031 137.99780273 C125.80193512 138.80636719 125.95054993 139.61493164 126.10366821 140.44799805 C132.13882613 173.41991404 134.2948376 205.6693619 133.90332031 239.18530273 C133.90138672 239.99386719 133.89945312 240.80243164 133.89746094 241.63549805 C133.70334297 283.15733163 117.96780634 323.07213958 88.73144531 352.36108398 C73.62579085 366.52973356 54.5019315 375.17284744 34.90332031 381.18530273 C33.99839844 381.49081055 33.09347656 381.79631836 32.16113281 382.11108398 C24.23975925 384.61919615 16.28898868 386.08434141 8.09082031 387.37280273 C7.04869385 387.53965576 6.00656738 387.70650879 4.93286133 387.87841797 C-10.58409129 390.19981423 -26.30607291 390.48286686 -41.97167969 390.56030273 C-43.38969879 390.56814285 -43.38969879 390.56814285 -44.83636475 390.57614136 C-71.33069465 390.64173351 -97.7075885 388.24955056 -124.08886719 386.04353333 C-132.3664162 385.36259093 -140.63462534 384.81353365 -148.93948364 384.62452698 C-158.9936127 384.28665968 -167.19452681 380.4083005 -174.53417969 373.49780273 C-183.33609542 363.80273025 -187.95976028 353.3934236 -192.09667969 341.18530273 C-192.46664062 340.14889648 -192.83660156 339.11249023 -193.21777344 338.04467773 C-196.70727512 327.67121749 -198.47365523 316.97841538 -200.09667969 306.18530273 C-200.28294922 305.00178223 -200.46921875 303.81826172 -200.66113281 302.59887695 C-207.97323272 254.07255967 -207.24417796 199.52995721 -201.6081543 150.83105469 C-201.04272685 145.90540832 -200.69440173 140.97621701 -200.37792969 136.02905273 C-200.2844072 134.58211281 -200.2844072 134.58211281 -200.18899536 133.10594177 C-199.98838679 129.96592086 -199.792401 126.82563175 -199.59667969 123.68530273 C-199.52809753 122.61104034 -199.45951538 121.53677795 -199.38885498 120.42996216 C-198.64308944 108.66076116 -198.01150287 96.91212927 -197.85449219 85.11889648 C-197.84057434 84.17861603 -197.82665649 83.23833557 -197.81231689 82.26956177 C-197.75199411 77.8396252 -197.72260574 73.41248287 -197.73925781 68.98217773 C-197.68066696 54.32381246 -197.68066696 54.32381246 -192.09667969 48.18530273 C-191.60425781 47.46600586 -191.11183594 46.74670898 -190.60449219 46.00561523 C-164.38098338 13.85588975 -104.98912561 6.46309867 -66.97851562 2.20288086 C-44.6798121 0.13244888 -22.37422244 -0.00280188 0 0 Z " fill="#212121" transform="translate(344.0966796875,37.814697265625)"/>
<path d="M0 0 C-0.92039063 0.46148437 -1.84078125 0.92296875 -2.7890625 1.3984375 C-24.64489316 12.44931388 -24.64489316 12.44931388 -38 32 C-38.43415486 35.39327085 -38.43415486 35.39327085 -38.37109375 38.96484375 C-38.38573315 40.38883811 -38.40072788 41.81282885 -38.41601562 43.23681641 C-38.41899658 43.99810852 -38.42197754 44.75940063 -38.42504883 45.54376221 C-38.5247523 64.71175386 -39.64520542 83.81848779 -40.86149979 102.94063187 C-40.99994547 105.12413994 -41.13643276 107.30776276 -41.27243042 109.49142456 C-41.53023742 113.62225543 -41.79539703 117.75257183 -42.0625 121.8828125 C-42.14166153 123.1332988 -42.22082306 124.3837851 -42.30238342 125.67216492 C-42.41760597 127.4066967 -42.41760597 127.4066967 -42.53515625 129.17626953 C-42.600979 130.18448761 -42.66680176 131.19270569 -42.73461914 132.23147583 C-42.98834094 134.8783696 -43.42788106 137.40511139 -44 140 C-44.33 140 -44.66 140 -45 140 C-45.19069565 126.56747239 -44.70625847 113.28629097 -43.77593994 99.88717651 C-42.82960086 86.25483323 -41.93250547 72.64365511 -41.75390625 58.9765625 C-41.73339958 57.56207069 -41.73339958 57.56207069 -41.71247864 56.1190033 C-41.65374382 51.67662741 -41.62617486 47.23690653 -41.64282227 42.79418945 C-41.58356898 28.13804989 -41.58356898 28.13804989 -36 22 C-35.50757813 21.28070313 -35.01515625 20.56140625 -34.5078125 19.8203125 C-28.46480818 12.41165749 -9.92765817 -3.51837998 0 0 Z " fill="#1F1F1F" transform="translate(188,64)"/>
<path d="M0 0 C-15.51641429 8.20013692 -40.08231767 5.20343749 -57.25 5.1875 C-58.25026215 5.18756042 -59.25052429 5.18762085 -60.28109741 5.18768311 C-72.98170826 5.17678814 -85.63863441 4.97770342 -98.3125 4.125 C-99.50842773 4.04660889 -100.70435547 3.96821777 -101.93652344 3.88745117 C-107.92368578 3.4167992 -107.92368578 3.4167992 -110 3 C-110.33 2.34 -110.66 1.68 -111 1 C-104.58279787 0.89631092 -98.21368669 0.95238238 -91.80960083 1.35173035 C-80.46872945 2.05449394 -69.14534896 2.18618255 -57.78515625 2.18530273 C-54.63527973 2.18749285 -51.48575279 2.20574967 -48.3359375 2.22460938 C-37.48039084 2.25352276 -26.79722942 1.92879243 -16.00454712 0.70195007 C-10.62974546 0.09434744 -5.41106903 -0.08559463 0 0 Z " fill="#191919" transform="translate(357,423)"/>
<path d="M0 0 C0.33 0 0.66 0 1 0 C2.85797549 15.36147593 1.96672983 30.82917237 1.2020874 46.23574829 C0.10346247 68.48374389 -0.54780895 90.73050973 -1 113 C-1.33 113 -1.66 113 -2 113 C-2.06121148 102.22920867 -2.10195658 91.45843728 -2.125 80.6875 C-2.12671204 79.89290123 -2.12842407 79.09830246 -2.13018799 78.27962494 C-2.17995937 52.13679351 -1.68914487 26.09638976 0 0 Z " fill="#353535" transform="translate(142,193)"/>
<path d="M0 0 C2.20390715 0.14051089 4.40825025 0.27149048 6.61279297 0.40161133 C8.03079578 0.48895063 9.44876605 0.57682044 10.86669922 0.6652832 C12.75630371 0.78311157 12.75630371 0.78311157 14.68408203 0.90332031 C17.23269085 1.13779695 19.47303845 1.47034179 21.91357422 2.20043945 C21.91357422 2.86043945 21.91357422 3.52043945 21.91357422 4.20043945 C18.26763213 4.0572537 14.62184755 3.91035455 10.97607422 3.76293945 C9.97382813 3.72362305 8.97158203 3.68430664 7.93896484 3.64379883 C2.12073094 3.40669212 -3.68283236 3.09289245 -9.49267578 2.70043945 C-22.17819435 1.89776029 -34.89783289 1.85334528 -47.60388184 1.66821289 C-51.05057946 1.61719033 -54.49720926 1.56193413 -57.94384766 1.50708008 C-64.65798568 1.40105372 -71.37217581 1.29910825 -78.08642578 1.20043945 C-78.08642578 0.87043945 -78.08642578 0.54043945 -78.08642578 0.20043945 C-71.68592684 0.0555137 -65.28536887 -0.08656388 -58.88476562 -0.22680664 C-56.71450421 -0.27467769 -54.54425624 -0.32316341 -52.37402344 -0.37231445 C-34.87940452 -0.76790113 -17.47417855 -1.11973168 0 0 Z " fill="#383838" transform="translate(404.08642578125,38.799560546875)"/>
<path d="M0 0 C0.33 0 0.66 0 1 0 C1.01981934 1.10174561 1.03963867 2.20349121 1.06005859 3.33862305 C1.47647094 32.2339786 1.47647094 32.2339786 4 61 C4.0839502 61.6815918 4.16790039 62.36318359 4.25439453 63.06542969 C4.9427854 68.6399139 5.72582043 74.19717542 6.5703125 79.75 C7.49669854 85.90851002 8.24918318 91.77042051 8 98 C4.54480437 94.54480437 4.72356074 89.51281843 4 84.8125 C3.835 83.82185547 3.67 82.83121094 3.5 81.81054688 C0.3898468 62.11695964 -0.28624873 42.46759122 -0.125 22.5625 C-0.11492892 20.35482186 -0.10581052 18.14713917 -0.09765625 15.93945312 C-0.07601844 10.62619953 -0.04288187 5.31312253 0 0 Z " fill="#1E1E1E" transform="translate(141,266)"/>
<path d="M0 0 C1.23878906 0.04382813 2.47757813 0.08765625 3.75390625 0.1328125 C5.05714844 0.184375 6.36039063 0.2359375 7.703125 0.2890625 C8.95996094 0.33289063 10.21679688 0.37671875 11.51171875 0.421875 C33.98005884 1.25318049 33.98005884 1.25318049 41.953125 2.9140625 C44.5599377 3.13287269 47.15532689 3.32419103 49.765625 3.4765625 C50.80493164 3.54133789 50.80493164 3.54133789 51.86523438 3.60742188 C53.56101186 3.71267703 55.25704552 3.81379113 56.953125 3.9140625 C56.953125 4.2440625 56.953125 4.5740625 56.953125 4.9140625 C52.03492166 6.26276568 47.2991093 5.86590399 42.265625 5.6015625 C41.29334961 5.55378662 40.32107422 5.50601074 39.31933594 5.45678711 C37.12172925 5.3460956 34.9243086 5.23167093 32.72705078 5.11425781 C30.01724194 4.97051067 27.30748519 4.83158146 24.59716797 4.69824219 C20.73510596 4.50779597 16.87371063 4.30679287 13.01254272 4.09902954 C11.47511621 4.01750073 9.93753385 3.93885859 8.39981079 3.86312866 C6.22429326 3.75483647 4.04972846 3.6347299 1.875 3.51171875 C0.61268555 3.44476807 -0.64962891 3.37781738 -1.95019531 3.30883789 C-5.046875 2.9140625 -5.046875 2.9140625 -8.046875 0.9140625 C-5.26514564 -0.47680218 -3.10665969 -0.11354882 0 0 Z " fill="#303030" transform="translate(194.046875,419.0859375)"/>
<path d="M0 0 C0.99 0.33 1.98 0.66 3 1 C4.17919922 3.68945312 4.17919922 3.68945312 5.3046875 7.28125 C5.50913986 7.92256363 5.71359222 8.56387726 5.92424011 9.22462463 C6.58650441 11.31284696 7.23107864 13.40605608 7.875 15.5 C8.3226355 16.92661816 8.77112224 18.3529695 9.22045898 19.77905273 C10.49765683 23.84747187 11.75114855 27.92279039 13 32 C13.30856934 33.0017627 13.61713867 34.00352539 13.93505859 35.03564453 C18.54504683 50.06550797 18.54504683 50.06550797 19 55 C18.34 55.99 17.68 56.98 17 58 C16.68289063 56.75992188 16.36578125 55.51984375 16.0390625 54.2421875 C12.66063609 41.32854 8.68150634 28.69702646 4.34033203 16.08154297 C3.92251465 14.85838379 3.50469727 13.63522461 3.07421875 12.375 C2.69869873 11.28960937 2.32317871 10.20421875 1.9362793 9.0859375 C1.01854457 6.06112214 0.44504562 3.12617413 0 0 Z " fill="#212121" transform="translate(432,44)"/>
<path d="M0 0 C0.99 0.33 1.98 0.66 3 1 C2.51781006 1.95845825 2.51781006 1.95845825 2.02587891 2.9362793 C0.66282115 7.00696273 0.64550972 10.7531061 0.5859375 15.01953125 C0.56657135 15.87810226 0.5472052 16.73667328 0.5272522 17.6212616 C0.46768444 20.35157474 0.42116266 23.08193057 0.375 25.8125 C0.33679921 27.66863773 0.29774625 29.52475812 0.2578125 31.38085938 C0.16200173 35.92043144 0.07788679 40.46008646 0 45 C-0.33 45 -0.66 45 -1 45 C-2.03079139 37.08342726 -2.18624027 29.19352734 -2.18530273 21.22070312 C-2.18751795 19.10787624 -2.20582407 16.99554949 -2.22460938 14.8828125 C-2.22753917 13.52864759 -2.22952673 12.17448025 -2.23046875 10.8203125 C-2.23457764 9.60617676 -2.23868652 8.39204102 -2.24291992 7.14111328 C-2.01255392 4.16233042 -1.56615148 2.50072144 0 0 Z " fill="#222222" transform="translate(149,90)"/>
<path d="M0 0 C0.33 0 0.66 0 1 0 C3.94740863 13.22739484 0.76864717 26.02012551 -2 39 C-2.66 38.34 -3.32 37.68 -4 37 C-3.89107451 34.18349814 -3.66191686 31.50127499 -3.3203125 28.7109375 C-3.22869843 27.89251373 -3.13708435 27.07408997 -3.04269409 26.23086548 C-2.74703168 23.61095845 -2.43619936 20.99310252 -2.125 18.375 C-1.92217734 16.60167656 -1.72034167 14.82823993 -1.51953125 13.0546875 C-1.02447411 8.70172782 -0.51580291 4.35054817 0 0 Z " fill="#313131" transform="translate(475,276)"/>
<path d="M0 0 C-3.19411335 1.77620146 -6.25667297 2.62956497 -9.8125 3.4375 C-14.47464445 4.55934613 -18.61198185 6.04976971 -23 8 C-26.31323573 9.07178526 -29.65010718 10.04962799 -33 11 C-33.66 10.34 -34.32 9.68 -35 9 C-30.91781844 7.51764107 -26.83406302 6.03966659 -22.75 4.5625 C-21.59113281 4.14162109 -20.43226563 3.72074219 -19.23828125 3.28710938 C-18.12324219 2.88427734 -17.00820312 2.48144531 -15.859375 2.06640625 C-14.83295898 1.69459229 -13.80654297 1.32277832 -12.74902344 0.93969727 C-7.90892683 -0.71479047 -5.09461084 -1.04207949 0 0 Z " fill="#323232" transform="translate(221,53)"/>
<path d="M0 0 C1.99966025 2.99949038 2.50607212 4.73014289 3.25 8.1875 C4.84274307 14.90329295 7.20766474 21.20724847 9.6953125 27.62890625 C10.51043652 29.73505005 11.28583833 31.85751499 12 34 C11.34 34.66 10.68 35.32 10 36 C6.51821981 28.45016048 3.47141168 20.8975705 1.0625 12.9375 C0.72762573 11.86737671 0.72762573 11.86737671 0.38598633 10.77563477 C-0.76283219 6.8352946 -1.24054576 3.95279489 0 0 Z " fill="#303030" transform="translate(149,361)"/>
<path d="M0 0 C0 0.99 0 1.98 0 3 C-3.4974306 3.98850238 -6.99834559 4.96407571 -10.5 5.9375 C-11.97339844 6.35418945 -11.97339844 6.35418945 -13.4765625 6.77929688 C-28.1286126 10.83303074 -28.1286126 10.83303074 -32.22070312 9.01147461 C-32.80787109 8.67768799 -33.39503906 8.34390137 -34 8 C-33.42145264 7.89977539 -32.84290527 7.79955078 -32.24682617 7.69628906 C-17.77818339 5.25784987 -17.77818339 5.25784987 -3.86328125 0.734375 C-2 0 -2 0 0 0 Z " fill="#2C2C2C" transform="translate(387,414)"/>
<path d="M0 0 C2.39719578 4.42283564 3.20413239 8.91696235 4.1875 13.8125 C4.37763672 14.68970703 4.56777344 15.56691406 4.76367188 16.47070312 C5.82021762 21.68325538 6.11622797 25.78856621 5 31 C4.67 31 4.34 31 4 31 C3.35342992 27.45846743 2.7078757 23.9167504 2.0625 20.375 C1.88009766 19.37597656 1.69769531 18.37695312 1.50976562 17.34765625 C1.15764996 15.41422116 0.80811079 13.48031468 0.46142578 11.54589844 C0.09417845 9.51962586 -0.2948741 7.49730826 -0.69140625 5.4765625 C-1 3 -1 3 0 0 Z " fill="#2C2C2C" transform="translate(463,147)"/>
<path d="M0 0 C1.67877076 2.51815614 2.43570033 4.00464551 3.25390625 6.80078125 C3.46853516 7.53103516 3.68316406 8.26128906 3.90429688 9.01367188 C4.12150391 9.77228516 4.33871094 10.53089844 4.5625 11.3125 C4.78357422 12.05951172 5.00464844 12.80652344 5.23242188 13.57617188 C7.65619807 21.91659811 7.65619807 21.91659811 8 26 C7.34 26.99 6.68 27.98 6 29 C5.01802507 25.43826802 4.03991657 21.87548535 3.0625 18.3125 C2.78470703 17.30509766 2.50691406 16.29769531 2.22070312 15.25976562 C1.95322266 14.28330078 1.68574219 13.30683594 1.41015625 12.30078125 C1.16402588 11.40528564 0.91789551 10.50979004 0.66430664 9.5871582 C-1.18754286 2.37508573 -1.18754286 2.37508573 0 0 Z " fill="#363636" transform="translate(443,73)"/>
<path d="M0 0 C2.27406915 3.41110372 2.90351262 6.4875295 3.625 10.4375 C3.82283081 11.49807617 3.82283081 11.49807617 4.0246582 12.58007812 C5.09913493 18.74217088 5.31961945 24.7496641 5 31 C3.48959821 28.23469503 2.64284679 25.84189297 2.1484375 22.734375 C2.01953125 21.92613281 1.890625 21.11789063 1.7578125 20.28515625 C1.63148438 19.44855469 1.50515625 18.61195313 1.375 17.75 C1.2409375 16.92886719 1.106875 16.10773438 0.96875 15.26171875 C0.16884675 10.1113213 -0.1320721 5.21084484 0 0 Z " fill="#212121" transform="translate(468,175)"/>
<path d="M0 0 C0.66 0.33 1.32 0.66 2 1 C0.92044741 2.73152958 -0.16382512 4.46011684 -1.25 6.1875 C-1.85328125 7.15042969 -2.4565625 8.11335938 -3.078125 9.10546875 C-4.91637545 11.87405327 -6.88425949 14.43957951 -9 17 C-9.99 16.67 -10.98 16.34 -12 16 C-8 10.66666667 -4 5.33333333 0 0 Z " fill="#212121" transform="translate(452,363)"/>
<path d="M0 0 C0.33 0 0.66 0 1 0 C2.49581877 7.29211652 2.51844611 14.71145866 1 22 C0.34 22.33 -0.32 22.66 -1 23 C-1.1567564 15.28410183 -0.67453101 7.68483539 0 0 Z " fill="#2C2C2C" transform="translate(145,150)"/>
<path d="M0 0 C0.33 0 0.66 0 1 0 C0.64999003 7.24158565 -0.05602409 13.34405447 -3 20 C-3.33 20 -3.66 20 -4 20 C-3.42978625 13.04339229 -1.98697306 6.68572695 0 0 Z " fill="#1B1B1B" transform="translate(471,313)"/>
<path d="M0 0 C0 0.66 0 1.32 0 2 C-1.64453125 3.5859375 -1.64453125 3.5859375 -3.8125 5.375 C-6.06250857 7.23566282 -7.90350285 8.86872703 -9.63671875 11.2265625 C-10.08660156 11.81179687 -10.53648437 12.39703125 -11 13 C-11.66 13 -12.32 13 -13 13 C-11.56951306 9.81716656 -9.80982757 7.42084342 -7.5 4.8125 C-6.58734375 3.77029297 -6.58734375 3.77029297 -5.65625 2.70703125 C-3.73667164 0.72859789 -2.7753566 0 0 0 Z " fill="#1C1C1C" transform="translate(163,77)"/>
<path d="M0 0 C0.99 0.33 1.98 0.66 3 1 C4.01953125 3.3984375 4.01953125 3.3984375 4.8125 6.375 C5.08707031 7.35210937 5.36164063 8.32921875 5.64453125 9.3359375 C6 12 6 12 4 15 C3.3317426 12.68794873 2.66532276 10.37539569 2 8.0625 C1.80921875 7.40314453 1.6184375 6.74378906 1.421875 6.06445312 C0 1.11328125 0 1.11328125 0 0 Z " fill="#363636" transform="translate(432,44)"/>
<path d="M0 0 C0 0.33 0 0.66 0 1 C-2.08042163 1.39083065 -4.16452339 1.7621087 -6.25 2.125 C-7.99023438 2.43824219 -7.99023438 2.43824219 -9.765625 2.7578125 C-13.03554316 3.00266144 -14.32492834 2.78779541 -17 1 C-10.97767819 -0.46619907 -6.09632423 -1.32528788 0 0 Z " fill="#3C3C3C" transform="translate(370,421)"/>
<path d="M0 0 C3.5991308 5.3986962 4.26122419 10.6000073 4 17 C3.34 16.67 2.68 16.34 2 16 C0.41529145 10.80567752 -0.28533749 5.42141225 0 0 Z " fill="#1F1F1F" transform="translate(459,133)"/>
<path d="M0 0 C-0.33 0.66 -0.66 1.32 -1 2 C-3.109375 2.6328125 -3.109375 2.6328125 -5.75 3.125 C-6.61109375 3.29257812 -7.4721875 3.46015625 -8.359375 3.6328125 C-10.94533821 3.9923991 -13.39313809 4.06564041 -16 4 C-10.75543553 -0.3080351 -6.5705829 -0.10950972 0 0 Z " fill="#232323" transform="translate(234,49)"/>
<path d="M0 0 C0 0.33 0 0.66 0 1 C-2.08042163 1.39083065 -4.16452339 1.7621087 -6.25 2.125 C-7.99023438 2.43824219 -7.99023438 2.43824219 -9.765625 2.7578125 C-13.03554316 3.00266144 -14.32492834 2.78779541 -17 1 C-10.97767819 -0.46619907 -6.09632423 -1.32528788 0 0 Z " fill="#393939" transform="translate(247,47)"/>
<path d="M0 0 C2 3 2 3 1.5390625 5.69921875 C1.23742187 6.68535156 0.93578125 7.67148437 0.625 8.6875 C0.32851563 9.68136719 0.03203125 10.67523438 -0.2734375 11.69921875 C-0.51320313 12.45847656 -0.75296875 13.21773438 -1 14 C-3 11 -3 11 -2.5390625 8.30078125 C-2.23742187 7.31464844 -1.93578125 6.32851563 -1.625 5.3125 C-1.32851563 4.31863281 -1.03203125 3.32476562 -0.7265625 2.30078125 C-0.48679687 1.54152344 -0.24703125 0.78226562 0 0 Z " fill="#424242" transform="translate(466,330)"/>
<path d="M0 0 C0.33 0 0.66 0 1 0 C2.09587955 4.24551856 1.92865836 7.9592839 1.5625 12.3125 C1.46066406 13.56675781 1.35882813 14.82101563 1.25390625 16.11328125 C1.12822266 17.54220703 1.12822266 17.54220703 1 19 C0.67 19 0.34 19 0 19 C-0.19534474 16.58373582 -0.38153404 14.16734771 -0.5625 11.75 C-0.61857422 11.06808594 -0.67464844 10.38617188 -0.73242188 9.68359375 C-0.98186254 6.2579419 -1.13879745 3.27298823 0 0 Z " fill="#3B3B3B" transform="translate(473,202)"/>
<path d="M0 0 C2.41046992 3.85675187 2.71654315 7.53555468 3 12 C2.01 13.485 2.01 13.485 1 15 C-0.66251802 9.42567486 -1.18609365 5.6932495 0 0 Z " fill="#373737" transform="translate(463,147)"/>
<path d="M0 0 C-1.62249941 0.83819158 -3.24808497 1.6704116 -4.875 2.5 C-6.23238281 3.19609375 -6.23238281 3.19609375 -7.6171875 3.90625 C-10 5 -10 5 -12 5 C-12 4.34 -12 3.68 -12 3 C-10.75823305 2.29773859 -9.50614401 1.61370891 -8.25 0.9375 C-7.20585937 0.36322266 -7.20585937 0.36322266 -6.140625 -0.22265625 C-3.63859372 -1.1312406 -2.4667645 -0.88336837 0 0 Z " fill="#1D1D1D" transform="translate(188,64)"/>
<path d="M0 0 C4.85963179 0.60745397 8.7405518 2.72758967 13 5 C10.44855176 5.93045933 9.25993522 6.08564091 6.640625 5.22265625 C5.85171875 4.83980469 5.0628125 4.45695312 4.25 4.0625 C3.45078125 3.68222656 2.6515625 3.30195313 1.828125 2.91015625 C1.22484375 2.60980469 0.6215625 2.30945313 0 2 C0 1.34 0 0.68 0 0 Z " fill="#1C1C1C" transform="translate(175,414)"/>
<path d="M0 0 C2.12632393 3.54387321 2.70187643 6.90080096 3 11 C2.01 12.485 2.01 12.485 1 14 C0.63659714 12.23103898 0.28459117 10.45973374 -0.0625 8.6875 C-0.25972656 7.70136719 -0.45695312 6.71523437 -0.66015625 5.69921875 C-1 3 -1 3 0 0 Z " fill="#353535" transform="translate(457,122)"/>
<path d="M0 0 C0 0.66 0 1.32 0 2 C-4.95 3.485 -4.95 3.485 -10 5 C-10.66 4.34 -11.32 3.68 -12 3 C-10.75336669 2.49166409 -9.50250613 1.99368855 -8.25 1.5 C-7.55390625 1.2215625 -6.8578125 0.943125 -6.140625 0.65625 C-4 0 -4 0 0 0 Z " fill="#303030" transform="translate(198,59)"/>
<path d="M0 0 C0.99 0.33 1.98 0.66 3 1 C2.01 3.97 1.02 6.94 0 10 C-2 7 -2 7 -1.6875 4.4375 C-1 2 -1 2 0 0 Z " fill="#3B3B3B" transform="translate(149,90)"/>
<path d="M0 0 C-2.64 1.65 -5.28 3.3 -8 5 C-8.66 4.34 -9.32 3.68 -10 3 C-3.375 -1.125 -3.375 -1.125 0 0 Z " fill="#222222" transform="translate(415,403)"/>
<path d="M0 0 C0 0.99 0 1.98 0 3 C-2.875 3.625 -2.875 3.625 -6 4 C-6.66 3.34 -7.32 2.68 -8 2 C-2.25 0 -2.25 0 0 0 Z " fill="#444444" transform="translate(204,56)"/>
</svg>
